Coordinates
version=1
nRows=13
nColumns=22
inDegrees=yes

Units are S.I. units (second, meters, Newtons, ...)
If the header above contains a line with 'inDegrees', this indicates whether rotational values are in degrees (yes) or radians (no).

endheader
time	pelvis_tilt	pelvis_list	pelvis_rotation	pelvis_tx	pelvis_ty	pelvis_tz	hip_flexion_r	hip_adduction_r	hip_rotation_r	knee_angle_r	ankle_angle_r	subtalar_angle_r	hip_flexion_l	hip_adduction_l	hip_rotation_l	knee_angle_l	ankle_angle_l	subtalar_angle_l	lumbar_extension	lumbar_bending	lumbar_rotation
      1.34000000	    -11.49070157	      2.01807771	    -35.42110590	     -1.07416227	      0.96484585	     -0.10713203	     16.36648760	     10.23857191	     -1.70177648	    -23.17892063	     22.13664098	    -11.41264123	     35.45969329	     -7.32228925	     -0.71302903	    -51.24777024	     20.46331821	     -3.29993093	     -1.84709452	      6.13696978	      6.12456304
      1.35000000	    -11.46499754	      2.10603079	    -35.57670627	     -1.07226174	      0.96472090	     -0.10534468	     16.17873851	     10.19826340	     -1.54281672	    -23.10866648	     22.28301332	    -11.41563802	     36.03193490	     -7.18719934	     -0.63637849	    -51.31424464	     20.44165250	     -3.25241529	     -1.92609410	      6.05415373	      6.35452956
      1.36000000	    -11.47124198	      2.23248033	    -35.76610611	     -1.07031218	      0.96450533	     -0.10352437	     16.06076205	     10.14317097	     -1.38328571	    -23.08420779	     22.39153880	    -11.39977190	     36.62704909	     -7.05912205	     -0.60594490	    -51.24311647	     20.40071418	     -3.11849139	     -1.95890542	      5.96145644	      6.64720943
      1.37000000	    -11.45619976	      2.31275116	    -35.92395600	     -1.06820534	      0.96434149	     -0.10168458	     15.85783901	     10.10789925	     -1.22105314	    -23.00038676	     22.53347899	    -11.39279913	     37.16325269	     -6.93559321	     -0.54318421	    -51.05157806	     20.31575877	     -3.02039856	     -2.04433925	      5.90153745	      6.86262899
      1.38000000	    -11.45402937	      2.42231468	    -36.11876682	     -1.06603640	      0.96411000	     -0.09978645	     15.69976069	     10.05541253	     -1.06225667	    -22.96152598	     22.65679366	    -11.36758764	     37.69789574	     -6.82343155	     -0.53945691	    -50.73870439	     20.23584655	     -2.81852117	     -2.10613674	      5.82466838	      7.14875924
      1.39000000	    -11.44592079	      2.49734785	    -36.28197941	     -1.06371443	      0.96388719	     -0.09788694	     15.48987556	     10.01920649	     -0.91497679	    -22.88478187	     22.79338220	    -11.34660771	     38.19619270	     -6.71483193	     -0.50305526	    -50.32612701	     20.14066414	     -2.64106407	     -2.19938248	      5.78019120	      7.37311786
      1.40000000	    -11.44159225	      2.54952682	    -36.42195492	     -1.06124942	      0.96364682	     -0.09597534	     15.24799860	      9.99646612	     -0.77863522	    -22.78058994	     22.93179763	    -11.33780018	     38.67086097	     -6.60977063	     -0.43972312	    -49.81947802	     20.04870221	     -2.53708368	     -2.30575692	      5.76659894	      7.54463872
      1.41000000	    -11.43618405	      2.60392671	    -36.56711696	     -1.05866534	      0.96337172	     -0.09403742	     15.00484069	      9.96519401	     -0.64913795	    -22.68689207	     23.07739772	    -11.32246536	     39.12631696	     -6.51092949	     -0.40339495	    -49.22850016	     19.96184670	     -2.41058595	     -2.41675949	      5.75504234	      7.73166217
      1.42000000	    -11.42118257	      2.65396901	    -36.71880245	     -1.05596966	      0.96308247	     -0.09204194	     14.74749768	      9.92511300	     -0.54930722	    -22.60162746	     23.23040423	    -11.28192136	     39.54914549	     -6.42064647	     -0.39252816	    -48.55771618	     19.88285075	     -2.21811795	     -2.54360969	      5.73842825	      7.93291962
      1.43000000	    -11.43587356	      2.67907256	    -36.82246872	     -1.05311007	      0.96273201	     -0.09007084	     14.47742183	      9.91442395	     -0.45958761	    -22.48217670	     23.37775012	    -11.26539266	     39.98038884	     -6.33022272	     -0.32052698	    -47.82637387	     19.79966609	     -2.13436117	     -2.65638002	      5.77684781	      8.04551098
      1.44000000	    -11.42090887	      2.71150932	    -36.93789716	     -1.05013473	      0.96239018	     -0.08803354	     14.18723527	      9.87410376	     -0.38874068	    -22.38112011	     23.54885604	    -11.21654647	     40.36181150	     -6.23337033	     -0.29828855	    -47.02402381	     19.69576916	     -1.99149334	     -2.79565652	      5.78364851	      8.18370982
      1.45000000	    -11.45032971	      2.72974778	    -37.01632600	     -1.04701687	      0.96195553	     -0.08599740	     13.90927778	      9.86849961	     -0.31262032	    -22.25769972	     23.70118324	    -11.19957325	     40.77101623	     -6.14403633	     -0.22642270	    -46.17952112	     19.58590999	     -1.92727155	     -2.89860820	      5.84421374	      8.25568821
      1.46000000	    -11.42734793	      2.75749791	    -37.09629595	     -1.04373144	      0.96156901	     -0.08391631	     13.59207745	      9.81012633	     -0.27056865	    -22.15382013	     23.89544671	    -11.13348527	     41.10668018	     -6.02453943	     -0.21067901	    -45.26921787	     19.41240837	     -1.78752822	     -3.04301054	      5.85946117	      8.34203052
